<svg width="146" height="32" viewBox="0 0 146 32" fill="none" xmlns="http://www.w3.org/2000/svg">
<path d="M48.5315 10.6875V24.5812H46.3099V14.6767L42.1959 21.6637H41.9267L37.8114 14.656V24.5812H35.5898V10.6875H37.985L42.0632 17.633L46.153 10.6875H48.5303H48.5315Z" fill="#0F0F0F"/>
<path d="M57.1264 13.8936H59.3156L55.6615 24.1277C54.7473 26.6924 53.1994 27.9095 51.0177 27.7775V25.7742C51.6653 25.8143 52.1846 25.672 52.5782 25.3474C52.9718 25.0227 53.295 24.517 53.549 23.8303L53.6445 23.6324L49.6094 13.8948H51.8552L54.6932 21.0936L57.1277 13.8948L57.1264 13.8936Z" fill="#0F0F0F"/>
<path d="M73.5066 5.34375H76.5713V24.2304H73.5066V22.2882C72.3519 23.8168 70.6977 24.5811 68.5398 24.5811C66.5908 24.5811 64.9258 23.8935 63.5448 22.517C62.1638 21.1404 61.4727 19.4635 61.4727 17.4848C61.4727 15.5061 62.1625 13.8065 63.5448 12.4388C64.9258 11.0723 66.5908 10.3885 68.5398 10.3885C70.6963 10.3885 72.3519 11.144 73.5066 12.655V5.34375ZM65.8166 20.5748C66.6685 21.3931 67.7361 21.8029 69.0233 21.8029C70.3106 21.8029 71.3781 21.3944 72.23 20.5748C73.0819 19.7564 73.5066 18.7268 73.5066 17.4848C73.5066 16.2428 73.0806 15.2145 72.23 14.3949C71.3781 13.5765 70.3092 13.1667 69.0233 13.1667C67.7374 13.1667 66.6685 13.5765 65.8166 14.3949C64.9647 15.2132 64.5401 16.2428 64.5401 17.4848C64.5401 18.7268 64.966 19.7564 65.8166 20.5748Z" fill="#0F0F0F"/>
<path d="M81.8047 18.8489C82.0231 19.8531 82.5217 20.6235 83.3017 21.16C84.0816 21.6978 85.0351 21.9661 86.1607 21.9661C87.7219 21.9661 88.8912 21.4209 89.6725 20.3281L92.0959 21.7015C90.7531 23.6213 88.7653 24.5812 86.1337 24.5812C83.9197 24.5812 82.1324 23.9252 80.7703 22.6134C79.4095 21.3016 78.7285 19.6415 78.7285 17.6343C78.7285 15.6272 79.3993 14.0114 80.7433 12.6823C82.0861 11.3533 83.8105 10.6875 85.9153 10.6875C87.9108 10.6875 89.5491 11.3656 90.8289 12.7217C92.1088 14.0778 92.7487 15.7244 92.7487 17.6614C92.7487 17.9604 92.7114 18.3567 92.6395 18.8502H81.8047V18.8489ZM81.7764 16.5243H89.7804C89.58 15.45 89.1225 14.6402 88.4055 14.0938C87.6885 13.5487 86.8494 13.2755 85.887 13.2755C84.7986 13.2755 83.8902 13.5659 83.1642 14.1468C82.4382 14.7276 81.9756 15.5201 81.7764 16.5243Z" fill="#0F0F0F"/>
<path d="M105.691 24.5812H102.455L99.2333 19.8429L96.0101 24.5812H92.749L97.6022 17.444L93.0081 10.6875H96.2435L99.2199 15.0645L102.196 10.6875H105.457L100.85 17.4621L105.691 24.5799V24.5812Z" fill="#0F0F0F"/>
<path d="M115.396 13.292H112.094V20.059C112.094 20.6423 112.219 21.06 112.468 21.3136C112.716 21.5671 113.085 21.7077 113.572 21.7366C114.06 21.7642 114.669 21.7602 115.396 21.7221V24.4573C113.195 24.7397 111.615 24.5374 110.656 23.8517C109.697 23.1659 109.218 21.9021 109.218 20.059V13.292H106.769V10.3598H109.218V7.31463L112.094 6.41211V10.3598H115.396V13.292Z" fill="#0F0F0F"/>
<path d="M119.551 18.8489C119.769 19.8531 120.268 20.6235 121.048 21.16C121.828 21.6978 122.781 21.9661 123.907 21.9661C125.468 21.9661 126.637 21.4209 127.419 20.3281L129.842 21.7015C128.499 23.6213 126.511 24.5812 123.88 24.5812C121.666 24.5812 119.878 23.9252 118.516 22.6134C117.156 21.3016 116.475 19.6415 116.475 17.6343C116.475 15.6272 117.145 14.0114 118.489 12.6823C119.832 11.3533 121.557 10.6875 123.661 10.6875C125.657 10.6875 127.295 11.3656 128.575 12.7217C129.855 14.0778 130.495 15.7244 130.495 17.6614C130.495 17.9604 130.458 18.3567 130.386 18.8502H119.551V18.8489ZM119.523 16.5243H127.527C127.326 15.45 126.869 14.6402 126.152 14.0938C125.435 13.5487 124.596 13.2755 123.633 13.2755C122.545 13.2755 121.636 13.5659 120.91 14.1468C120.184 14.7276 119.722 15.5201 119.523 16.5243Z" fill="#0F0F0F"/>
<path d="M135.764 13.2259C136.551 11.5332 138.03 10.6875 140.202 10.6875V13.8808C139.01 13.8083 137.973 14.0767 137.09 14.6858C136.206 15.2963 135.764 16.3009 135.764 17.7024V24.5812H132.652V10.9329H135.764V13.2259Z" fill="#0F0F0F"/>
<g filter="url(#filter0_d_2214_1546)">
<path d="M23.5576 2.88184H8.07615C5.2182 2.88184 2.90137 5.17776 2.90137 8.00992V23.3517C2.90137 26.1838 5.2182 28.4797 8.07615 28.4797H23.5576C26.4155 28.4797 28.7323 26.1838 28.7323 23.3517V8.00992C28.7323 5.17776 26.4155 2.88184 23.5576 2.88184Z" fill="url(#paint0_linear_2214_1546)"/>
<path d="M8.07615 3.12528H23.5576C26.2832 3.12528 28.4889 5.31429 28.4889 8.00992V23.3517C28.4889 26.0473 26.2832 28.2363 23.5576 28.2363H8.07615C5.35056 28.2363 3.14481 26.0473 3.14481 23.3517V8.00992C3.14481 5.31429 5.35056 3.12528 8.07615 3.12528Z" stroke="#999AFF" stroke-width="0.486887" stroke-miterlimit="10"/>
</g>
<path d="M22.542 7.76172H21.2382C21.2382 7.76172 20.75 10.1782 18.1317 10.1782H15.6704C12.0543 10.1782 9.08594 13.2753 9.08594 16.7166L9.09399 16.9386C9.09399 20.6245 12.2367 23.5089 15.6221 23.5089H15.7643C19.9358 23.5089 22.55 20.1951 22.55 17.114L22.5433 7.76172H22.542ZM19.0157 16.8482C19.0157 18.6014 17.5805 20.0237 15.8113 20.0237C14.0421 20.0237 12.6069 18.6014 12.6069 16.8482C12.6069 15.095 14.0421 13.6727 15.8113 13.6727H19.0157V16.8482Z" fill="url(#paint1_linear_2214_1546)"/>
<path d="M22.5421 7.76172C22.2336 7.76172 21.4744 7.76172 21.2383 7.76172C21.2383 7.76172 20.7501 10.1782 18.1318 10.1782C20.4228 10.1782 22.3261 9.28632 22.5434 7.76172H22.5421Z" fill="#FAA858"/>
<defs>
<filter id="filter0_d_2214_1546" x="1.78141" y="2.88184" width="28.071" height="27.8376" filterUnits="userSpaceOnUse" color-interpolation-filters="sRGB">
<feFlood flood-opacity="0" result="BackgroundImageFix"/>
<feColorMatrix in="SourceAlpha" type="matrix" values="0 0 0 0 0 0 0 0 0 0 0 0 0 0 0 0 0 0 127 0" result="hardAlpha"/>
<feOffset dy="1.11995"/>
<feGaussianBlur stdDeviation="0.559977"/>
<feColorMatrix type="matrix" values="0 0 0 0 0 0 0 0 0 0 0 0 0 0 0 0 0 0 0.08 0"/>
<feBlend mode="normal" in2="BackgroundImageFix" result="effect1_dropShadow_2214_1546"/>
<feBlend mode="normal" in="SourceGraphic" in2="effect1_dropShadow_2214_1546" result="shape"/>
</filter>
<linearGradient id="paint0_linear_2214_1546" x1="15.8169" y1="6.69534" x2="15.8169" y2="31.5476" gradientUnits="userSpaceOnUse">
<stop offset="0.06" stop-color="#7176FF"/>
<stop offset="0.23" stop-color="#6D68FB"/>
<stop offset="0.54" stop-color="#6546F3"/>
<stop offset="0.95" stop-color="#570EE6"/>
<stop offset="0.97" stop-color="#570DE6"/>
</linearGradient>
<linearGradient id="paint1_linear_2214_1546" x1="15.8166" y1="12.5562" x2="15.8166" y2="24.963" gradientUnits="userSpaceOnUse">
<stop stop-color="white"/>
<stop offset="1" stop-color="#E1E2E3"/>
</linearGradient>
</defs>
</svg>
